<svg xmlns="http://www.w3.org/2000/svg" viewBox="0 0 30 30" width="30" height="30">
	<style>
		tspan { white-space:pre }
		.shp0 { fill: #ffffff } 
	</style>
	<g id="0.8.0 - Home">
		<g id="Previous Rulings">
			<g id="1">
				<path id="Rectangle 9 copy 3" class="shp0" d="M7.56 13.43C10.85 8.7 12.02 7.35 11.83 4.62C11.63 1.88 12.19 1.12 13.52 0.99C14.85 0.85 17.34 1.56 17.78 6.04C17.97 7.98 16.55 11.8 16.55 11.8C16.55 11.8 25.61 11.8 26.49 11.8C27.9 11.8 29 12.39 29 14.26C29 16.01 27.01 16.54 27.01 16.54C27.01 16.54 28.28 17.03 28.28 18.5C28.28 19.99 26.96 20.67 26.09 20.67C26.63 20.93 27.39 21.43 27.22 22.71C27.06 23.99 26.12 24.45 25.2 24.73C25.79 25.09 26.23 26.08 25.9 26.84C25.45 27.87 24.27 29 21.63 29C18.42 29 9.62 29 9.26 29C8.33 29 7.63 28.58 7.48 28.07C7.48 27.02 7.48 14 7.48 14C7.48 14 7.48 13.55 7.56 13.43ZM1.78 12.53L6.62 12.53L6.62 29L1.78 29L1.78 12.53ZM1 12.53L5.84 12.53L5.84 29L1 29L1 12.53Z" />
			</g>
		</g>
	</g>
</svg>